<svg xmlns="http://www.w3.org/2000/svg" width="1024" height="1024" viewBox="0 0 270.933 270.933"><path d="M226.611-28.516a47.99 47.99 0 0 0-47.992 47.993 47.99 47.99 0 0 0 43.178 47.648V46.12a20.164 20.164 0 0 1-15.989-19.67l.015-.2h-.015V6.468h8.35v19.788h.06a11.77 12.5 0 0 0-.016.194 11.77 12.5 0 0 0 11.77 12.5 11.77 12.5 0 0 0 11.77-12.5 11.77 12.5 0 0 0-.015-.194h.06V16.98h8.35v9.27h-.015l.014.201a20.164 20.164 0 0 1-15.988 19.67v21.095a47.99 47.99 0 0 0 44.455-47.74 47.99 47.99 0 0 0-47.992-47.992M205.808-15.72h8.35v12.38h-8.35zm31.978 0h8.35V7.17h-8.35zm-11.814 43.243a3.737 3.737 0 0 1 3.738 3.737 3.737 3.737 0 0 1-3.738 3.737 3.737 3.737 0 0 1-3.737-3.737 3.737 3.737 0 0 1 3.737-3.737" style="fill:#5b2333;fill-opacity:1;stroke-width:.467147" transform="matrix(2.59991 0 0 2.60018 -453.703 85.152)"/></svg>
