<?xml version="1.0" encoding="UTF-8" standalone="no"?>
<!-- Created with Inkscape (http://www.inkscape.org/) -->

<svg
   width="1023.9999"
   height="1024"
   viewBox="0 0 270.93333 270.93334"
   version="1.1"
   id="svg1"
   xmlns="http://www.w3.org/2000/svg"
   xmlns:svg="http://www.w3.org/2000/svg">
  <defs
     id="defs1" />
  <g
     id="layer1"
     transform="translate(44.450005,-1.3229169)">
    <g
       id="g3"
       transform="matrix(2.5999137,0,0,2.6001809,-498.15252,86.475248)"
       style="fill:#000000">
      <path
         id="path2"
         style="display:inline;fill:#000000;fill-opacity:1;stroke-width:0.467147"
         d="m 226.61106,-28.515571 a 47.992111,47.992111 0 0 0 -47.99211,47.992094 47.992111,47.992111 0 0 0 43.1783,47.64815 v -21.0034 a 20.163984,20.163984 0 0 1 -15.98886,-19.67038 20.163984,20.163984 0 0 1 0.0146,-0.20073 h -0.0146 V 6.469393 h 8.35027 v 3.70159 16.08649 h 0.0593 a 11.769927,12.499845 0 0 0 -0.0155,0.19342 11.769927,12.499845 0 0 0 11.76993,12.49985 11.769927,12.499845 0 0 0 11.76993,-12.49985 11.769927,12.499845 0 0 0 -0.0155,-0.19342 h 0.0593 v -0.007 -9.26995 h 8.35027 v 9.26995 h -0.0146 a 20.163984,20.163984 0 0 1 0.0146,0.20073 20.163984,20.163984 0 0 1 -15.98886,19.67038 v 21.09463 a 47.992111,47.992111 0 0 0 44.45563,-47.73969 47.992111,47.992111 0 0 0 -47.9921,-47.992094 z m -20.80267,12.795454 h 8.35027 v 12.37941 h -8.35027 z m 31.97771,0 h 8.35027 v 22.89024 h -8.35027 z m -11.81373,43.24308 a 3.73718,3.73718 0 0 1 3.73719,3.73719 3.73718,3.73718 0 0 1 -3.73719,3.73717 3.73718,3.73718 0 0 1 -3.73717,-3.73717 3.73718,3.73718 0 0 1 3.73717,-3.73719 z" />
    </g>
  </g>
</svg>
